<svg xmlns="http://www.w3.org/2000/svg" version="1.1" xmlns:xlink="http://www.w3.org/1999/xlink" xmlns:svgjs="http://svgjs.dev/svgjs" width="2000" height="1000" viewBox="0 0 2000 1875"><g transform="matrix(1,0,0,1,0,0)"><svg viewBox="0 0 384 360" data-background-color="#ffffff" preserveAspectRatio="xMidYMid meet" height="1875" width="2000" xmlns="http://www.w3.org/2000/svg" xmlns:xlink="http://www.w3.org/1999/xlink"><g id="tight-bounds" transform="matrix(1,0,0,1,0,0)"><svg viewBox="0 0 384 360" height="360" width="384"><g><svg></svg></g><g><svg viewBox="0 0 384 360" height="360" width="384"><g><path d="M362.354 145.441v-42.24c0-21.12-19.163-38.402-42.587-38.402h-93.208c-15.198 0-28.337-8.831-34.559-21.646-6.222 12.81-19.36 21.646-34.559 21.646h-93.208c-23.424 0-42.587 17.282-42.587 38.402v42.24c0 15.198-8.831 28.337-21.646 34.559 12.81 6.222 21.646 19.36 21.646 34.559v42.24c0 21.12 19.163 38.402 42.587 38.402h93.208c15.198 0 28.337 8.831 34.559 21.646 6.222-12.81 19.36-21.646 34.559-21.646h93.208c23.424 0 42.587-17.282 42.587-38.402v-42.24c0-15.198 8.831-28.337 21.646-34.559-12.81-6.222-21.646-19.36-21.646-34.559z" fill="#000000" fill-rule="nonzero" stroke="none" stroke-width="1" stroke-linecap="butt" stroke-linejoin="miter" stroke-miterlimit="10" stroke-dasharray="" stroke-dashoffset="0" font-family="none" font-weight="none" font-size="none" text-anchor="none" style="mix-blend-mode: normal" data-fill-palette-color="tertiary"></path></g><g transform="matrix(1,0,0,1,118.07530120481928,99)"><svg viewBox="0 0 147.84939759036143 162" height="162" width="147.84939759036143"><g><svg viewBox="0 0 147.84939759036143 162" height="162" width="147.84939759036143"><g><svg viewBox="0 0 147.84939759036143 162" height="162" width="147.84939759036143"><g><svg viewBox="0 0 147.84939759036143 162" height="162" width="147.84939759036143"><g id="textblocktransform"><svg viewBox="0 0 147.84939759036143 162" height="162" width="147.84939759036143" id="textblock"><g><svg viewBox="0 0 147.84939759036143 162" height="162" width="147.84939759036143"><g transform="matrix(1,0,0,1,0,0)"><svg width="147.84939759036143" viewBox="0.78 -32.15 29.59 32.42" height="162" data-palette-color="#ffffff"><path d="M14.04-12.55L14.04-9.55Q14.14-9.47 14.6-9.47 15.06-9.47 15.31-9.79 15.55-10.11 15.55-10.91L15.55-10.91 15.55-11.38Q15.55-12.28 15.34-12.67 15.14-13.06 14.66-13.06 14.18-13.06 14.01-12.96L14.01-12.96Q14.04-12.84 14.04-12.55L14.04-12.55ZM14.04-21.51L14.04-18.75Q14.14-18.68 14.6-18.68 15.06-18.68 15.31-19.04 15.55-19.41 15.55-20.24L15.55-20.24 15.55-20.39Q15.55-21.26 15.34-21.64 15.14-22.02 14.66-22.02 14.18-22.02 14.01-21.92L14.01-21.92Q14.04-21.8 14.04-21.51L14.04-21.51ZM0.78-5.76L0.78-28.15Q0.78-28.71 1.71-29.42L1.71-29.42Q3.66-30.91 8.59-31.74L8.59-31.74Q11.16-32.15 14.23-32.15L14.23-32.15Q21.56-32.15 25.32-29.32L25.32-29.32Q28.61-26.83 28.61-22.78L28.61-22.78Q28.61-21.31 28.1-19.91 27.59-18.51 26.64-17.8L26.64-17.8Q25.34-18.46 24.15-18.46L24.15-18.46Q23.58-18.46 23.29-18.24 23-18.02 23-17.43L23-17.43Q26.59-17.29 28.59-14.84L28.59-14.84Q30.37-12.62 30.37-9.33L30.37-9.33Q30.37-4.22 26.1-1.9L26.1-1.9Q22.09 0.27 14.04 0.27L14.04 0.27Q8.4 0.27 5.76-0.09 3.13-0.44 1.95-1.76 0.78-3.08 0.78-5.76L0.78-5.76Z" opacity="1" transform="matrix(1,0,0,1,0,0)" fill="#ffffff" class="wordmark-text-0" data-fill-palette-color="quaternary" id="text-0"></path></svg></g></svg></g></svg></g></svg></g></svg></g></svg></g></svg></g></svg></g><defs></defs></svg><rect width="384" height="360" fill="none" stroke="none" visibility="hidden"></rect></g></svg></g></svg>